<?xml version="1.0" encoding="utf-8"?>
<!-- Generator: Adobe Illustrator 19.2.1, SVG Export Plug-In . SVG Version: 6.00 Build 0)  -->
<svg version="1.1" id="layer" xmlns="http://www.w3.org/2000/svg" xmlns:xlink="http://www.w3.org/1999/xlink" x="0px" y="0px"
	 viewBox="0 0 652 652" style="enable-background:new 0 0 652 652;" xml:space="preserve">
<style type="text/css">
	.st0{fill:#F08300;}
	.st1{fill-rule:evenodd;clip-rule:evenodd;fill:#00683D;}
	.st2{fill:none;stroke:#00683D;stroke-width:1.828;stroke-miterlimit:3.864;}
	.st3{fill-rule:evenodd;clip-rule:evenodd;fill:#FFFFFF;}
	.st4{fill:none;stroke:#F08300;stroke-width:6.4852;stroke-miterlimit:3.864;}
</style>
<g>
	<path class="st0" d="M321,71.3c138.1,0,250,111.9,250,250c0,138.1-111.9,250-250,250c-138.1,0-250-111.9-250-250
		C71,183.2,182.9,71.3,321,71.3"/>
	<path class="st1" d="M89.2,321.3C89.2,193.3,193,89.5,321,89.5c128,0,231.7,103.7,231.7,231.7c0,128-103.8,231.7-231.7,231.7
		C193,553,89.2,449.3,89.2,321.3"/>
	<path class="st2" d="M89.2,321.3C89.2,193.3,193,89.5,321,89.5c128,0,231.7,103.7,231.7,231.7c0,128-103.8,231.7-231.7,231.7
		C193,553,89.2,449.3,89.2,321.3z"/>
	<path class="st3" d="M228.7,377.9c0,0-1.8-17.4-7.1-25.8c-6.2-9.8-16-30.2-16.9-38.2c-0.9-8-6.2-17.8-13.3-24
		c7.1-6.2,12.4-16,13.3-24c0.9-8,10.7-28.4,16.9-38.2c5.3-8.4,7.1-25.8,7.1-25.8c20.4,12.4,53.3-5.3,75.5-5.3
		c22.2,0,55.1,17.8,75.5,5.3c0,0,1.8,17.4,7.1,25.8c6.2,9.8,16,30.2,16.9,38.2c0.9,8,6.2,17.8,13.3,24c-7.1,6.2-12.4,16-13.3,24
		c-0.9,8-10.7,28.4-16.9,38.2c-5.3,8.4-7.1,25.8-7.1,25.8c-20.4-12.4-53.3,5.3-75.5,5.3C282,383.2,249.1,365.5,228.7,377.9
		 M353.9,262c0-30.8-34.6-41.3-49.8-41.3s-49.8,10.6-49.8,41.3c0,13.2,7.1,24.6,10.7,29c-3.6,4.4-10.7,15.8-10.7,29
		c0,30.8,34.6,41.3,49.8,41.3s49.8-10.6,49.8-41.3c0-13.2-7.1-24.6-10.7-29C346.8,286.6,353.9,275.2,353.9,262"/>
	<path class="st4" d="M228.7,377.9c0,0-1.8-17.4-7.1-25.8c-6.2-9.8-16-30.2-16.9-38.2c-0.9-8-6.2-17.8-13.3-24
		c7.1-6.2,12.4-16,13.3-24c0.9-8,10.7-28.4,16.9-38.2c5.3-8.4,7.1-25.8,7.1-25.8c20.4,12.4,53.3-5.3,75.5-5.3
		c22.2,0,55.1,17.8,75.5,5.3c0,0,1.8,17.4,7.1,25.8c6.2,9.8,16,30.2,16.9,38.2c0.9,8,6.2,17.8,13.3,24c-7.1,6.2-12.4,16-13.3,24
		c-0.9,8-10.7,28.4-16.9,38.2c-5.3,8.4-7.1,25.8-7.1,25.8c-20.4-12.4-53.3,5.3-75.5,5.3C282,383.2,249.1,365.5,228.7,377.9z
		 M353.9,262c0-30.8-34.6-41.3-49.8-41.3s-49.8,10.6-49.8,41.3c0,13.2,7.1,24.6,10.7,29c-3.6,4.4-10.7,15.8-10.7,29
		c0,30.8,34.6,41.3,49.8,41.3s49.8-10.6,49.8-41.3c0-13.2-7.1-24.6-10.7-29C346.8,286.6,353.9,275.2,353.9,262z"/>
	<path class="st3" d="M263.3,262.8l2.2,20c0,0,8.9,0.9,13.3,0.9c0,0,14.2,0,14.2,9.8v54.2c0,7.1-8,14.2-8,14.2s8,6.2,8,13.3v27.1
		c0,20.4-27.1,16.9-27.1,16.9v25.3h19.1c8.4,0,19.1-5.8,19.1-5.8l10.2,7.6c1.3-0.5,10.7-7.6,10.7-7.6c9.3,16.9,62.6,4,71.1,1.8
		c8.4-2.2,19.5,1.8,19.5,1.8c0-5.3-1.8-9.3,8-22.7c9.8-13.3,24.9-41.3,28-52.4c3.1-11.1,10.7-16.9,10.7-16.9s-7.6-4.4-9.3-16
		c-4-26.1-22.2-48.4-27.5-53.8c-5.3-5.3-4-19.1-4-19.1c-5.8,1.8-19.3-1.7-19.3-1.7c0.8,2.4,1.3,4.6,1.5,6.2c0.9,8,6.2,17.8,13.3,24
		c-7.1,6.2-12.4,16-13.3,24c-0.5,4.6-4.4,14.4-8.4,22.9c0,0,2.2,10,2.2,18c0,66.6-33.8,65.7-44.4,65.7c-10.7,0-18.3-11.1-18.3-18.2
		v-27.1c0-7.1,8-13.3,8-13.3s-8-7.1-8-14.2v-54.2c0-12.4,12.9-9.8,12.9-9.8c8-8.9,5.3-25.8,5.3-25.8c-8.9,0-20.4,5.3-32,5.3
		c-11.5,0-16.9-5.3-16.9-5.3s-8.9,6.2-20.4,2.7C276.8,258.5,263.3,262.8,263.3,262.8"/>
	<path class="st4" d="M263.3,262.8l2.2,20c0,0,8.9,0.9,13.3,0.9c0,0,14.2,0,14.2,9.8v54.2c0,7.1-8,14.2-8,14.2s8,6.2,8,13.3v27.1
		c0,20.4-27.1,16.9-27.1,16.9v25.3h19.1c8.4,0,19.1-5.8,19.1-5.8l10.2,7.6c1.3-0.5,10.7-7.6,10.7-7.6c9.3,16.9,62.6,4,71.1,1.8
		c8.4-2.2,19.5,1.8,19.5,1.8c0-5.3-1.8-9.3,8-22.7c9.8-13.3,24.9-41.3,28-52.4c3.1-11.1,10.7-16.9,10.7-16.9s-7.6-4.4-9.3-16
		c-4-26.1-22.2-48.4-27.5-53.8c-5.3-5.3-4-19.1-4-19.1c-5.8,1.8-19.3-1.7-19.3-1.7c0.8,2.4,1.3,4.6,1.5,6.2c0.9,8,6.2,17.8,13.3,24
		c-7.1,6.2-12.4,16-13.3,24c-0.5,4.6-4.4,14.4-8.4,22.9c0,0,2.2,10,2.2,18c0,66.6-33.8,65.7-44.4,65.7c-10.7,0-18.3-11.1-18.3-18.2
		v-27.1c0-7.1,8-13.3,8-13.3s-8-7.1-8-14.2v-54.2c0-12.4,12.9-9.8,12.9-9.8c8-8.9,5.3-25.8,5.3-25.8c-8.9,0-20.4,5.3-32,5.3
		c-11.5,0-16.9-5.3-16.9-5.3s-8.9,6.2-20.4,2.7C276.8,258.5,263.3,262.8,263.3,262.8z"/>
	<path class="st3" d="M145.7,440.5c-1,0.7-2.2,1.3-2.1,2.6l0,0.7c0,0.8,0,1.5-0.8,2.1c-1.3,0.9-2.4,0-3.1-1l-5.7-8.1
		c-0.7-1-1.1-2.3,0.2-3.2c0.9-0.6,1.5-0.3,2.2,0l0.6,0.3c1.2,0.6,2.2-0.4,3.2-1l22.8-15.8c1-0.7,2.2-1.3,2.1-2.6l0-0.7
		c0-0.8,0-1.5,0.8-2.1c1.3-0.9,2.4,0,3.1,1l12.9,18.6c0.5,0.7,1.7,2.2,1.6,3.1c0,1.6-2.5,3.3-3.7,4.3c-1,0.7-2.5,2.1-3.4,0.7
		c-0.6-0.8-0.3-1.8,0-2.8c1.3-4.2,0.1-6.1-2.2-9.3c-0.6-0.9-2.1-3.1-3.3-3.3c-1.2-0.2-2.4,0.8-3.4,1.5l-8.1,5.6l4.4,6.3
		c2.1,3.1,3.6,1.4,4.6,2.8c1,1.5-1.1,3-2.2,3.8c-1.3,0.9-3.9,3-5,1.3c-1-1.5,0.9-2.3-1.1-5.2l-4.4-6.3L145.7,440.5z"/>
	<path class="st3" d="M204.9,495.1c-3.2,5-2.9,5.7,3,9.6c2.6,1.7,4.4,2.7,7.8,1.6c1.3-0.4,3.2-1.2,4.4-0.5c0.8,0.5,1.1,1.7,0.5,2.6
		c-0.8,1.3-2.7,2.8-3.8,3.8c-1.9,1.7-2.4,1.7-4.4,0.4l-21.4-13.9c-1-0.6-1.9-1.7-1.1-3.1c0.6-0.9,1.2-0.8,2.1-0.9l0.7,0
		c1.3,0.1,1.9-1.2,2.5-2.2l15.1-23.3c0.7-1,1.6-2,1-3.2l-0.3-0.6c-0.3-0.8-0.6-1.4,0-2.2c0.8-1.3,2.2-0.9,3.2-0.3l20.5,13.3
		c0.7,0.4,1.9,1.1,2,2.1c0.1,1.1-1.6,4.1-2.2,5.1c-0.7,1.1-1.8,1.8-2.9,1.1c-1-0.6-1-1.6-1.1-2.8c-0.1-1.6-0.5-2.7-1.5-3.8
		c-1-1-2.8-2.4-4.1-3.2c-0.9-0.6-2.9-1.8-3.9-2c-0.8-0.1-1.6,0.1-2,0.8l-5.9,9.1l6.6,4.3c3.1,2,3.8-0.1,5.3,0.9
		c1.5,1,0.1,3.1-0.7,4.4c-0.8,1.3-2.4,4.2-4.2,3.1c-1.5-1,0-2.4-3-4.4l-6.6-4.3L204.9,495.1z"/>
	<path class="st3" d="M240.1,487.3c0.5-1.1,1.3-2.2,0.5-3.3l-0.4-0.6c-0.4-0.7-0.8-1.3-0.4-2.2c0.7-1.4,2.1-1.2,3.1-0.7l9,4.2
		c1,0.5,2.2,1.4,1.5,2.9c-0.4,1-1.1,1-1.9,1.2l-0.7,0.1c-1.3,0.1-1.7,1.4-2.2,2.5l-11.6,25.2c-0.5,1.1-1.3,2.2-0.5,3.3l0.4,0.6
		c0.4,0.7,0.8,1.3,0.3,2.2c-0.7,1.4-2.1,1.2-3.1,0.7l-9-4.2c-1-0.5-2.2-1.4-1.5-2.9c0.4-0.9,1.1-1,1.9-1.2l0.7-0.1
		c1.3-0.1,1.7-1.4,2.2-2.5L240.1,487.3z"/>
	<path class="st3" d="M288.2,507.6c-0.5,1-1.3,1.6-2.4,1.3c-1.2-0.3-1.4-1.2-1.5-2.4c-0.3-2.1-0.6-3.8-1.7-5.6c-1.3-2-3.3-3.4-5.4-4
		c-8.5-2.4-14.8,6-17,14.1c-2,7.2-1,17.2,6.5,19.3c1.7,0.5,4.2,0.6,5.9-0.6c1.9-1.2,2.7-4.1,3.3-6.3c1-3.6,1-4.7-2.4-5.7
		c-1.5-0.4-4-0.7-3.3-3.2c0.6-2.2,2.9-1.6,4.4-1.2l8.1,2.2c1,0.3,3.1,0.9,3.9,1.5c0.6,0.5,0.7,1,0.4,1.7c-0.2,0.8-0.7,1.8-1,2.5
		l-1.4,3.8c-0.5,1.9-0.8,3.7-1,5.6c0,0.3-0.1,0.9-0.2,1.2c-0.7,2.4-5.6,3.3-7.5,3.5c-4.1,0.5-7,0.5-10.9-0.6
		c-11.3-3.1-18.2-13.2-14.6-26.5c3.7-13.4,15.5-19.2,27.1-16c3.5,1,7.9,3.3,10.5,6.1c0.7,0.8,1.4,1.6,1.5,2.7c0.2,1.1-0.6,3.9-1,5
		L288.2,507.6z"/>
	<path class="st3" d="M303.9,533.4c-0.1,1.2-0.3,2.6,0.8,3.2l0.6,0.4c0.7,0.5,1.2,0.9,1.2,1.9c-0.1,1.6-1.5,1.9-2.7,1.9l-9.9-0.5
		c-1.2,0-2.5-0.5-2.5-2.1c0-1,0.6-1.4,1.3-1.8l0.6-0.3c1.2-0.6,1-1.9,1.1-3.1l1.2-27.7c0.1-1.2,0.3-2.5-0.8-3.2l-0.6-0.4
		c-0.7-0.5-1.2-0.9-1.2-1.9c0.1-1.6,1.5-1.9,2.7-1.9l9.9,0.5c1.1,0,2.5,0.5,2.5,2.1c0,1-0.6,1.4-1.3,1.8l-0.6,0.3
		c-1.2,0.6-1,1.9-1.1,3.1l-0.4,9.9l15.5,0.7l0.5-9.8c0-1.2,0.3-2.5-0.8-3.2l-0.6-0.4c-0.7-0.5-1.2-0.9-1.2-1.9
		c0.1-1.6,1.5-1.9,2.7-1.9l9.9,0.5c1.2,0.1,2.5,0.5,2.5,2.1c0,1-0.6,1.4-1.3,1.8l-0.6,0.3c-1.2,0.6-1,1.9-1.1,3.2l-1.3,27.7
		c-0.1,1.2-0.3,2.5,0.8,3.2l0.6,0.4c0.7,0.5,1.2,0.9,1.2,1.9c-0.1,1.6-1.5,1.9-2.7,1.9l-9.9-0.4c-1.1-0.1-2.5-0.5-2.5-2.1
		c0-1,0.6-1.4,1.3-1.8l0.6-0.3c1.2-0.6,1-1.9,1.1-3.1l0.6-13.5l-15.6-0.7L303.9,533.4z"/>
	<path class="st3" d="M348.9,504.3c-0.4-2.1-0.4-3.1-2.6-2.7c-5.9,1-5.1,5.8-7.5,6.2c-1.2,0.2-2.1-0.5-2.3-1.8
		c-0.1-0.6-0.1-1.3-0.1-1.9c0-1.1-0.2-4,0.5-4.9c0.4-0.5,1.6-0.6,2.3-0.7l26.3-4.6c0.6-0.1,1.8-0.4,2.4-0.1c0.9,0.5,1.8,3.4,2.1,4.4
		c0.2,0.5,0.5,1.2,0.6,1.8c0.2,1.3-0.3,2.3-1.6,2.5c-2.4,0.4-3.3-4.3-9.2-3.3c-2.2,0.4-1.9,1.4-1.5,3.4l4.8,27.3
		c0.2,1.2,0.2,2.5,1.5,3l0.6,0.2c0.8,0.3,1.4,0.6,1.6,1.6c0.3,1.5-1,2.2-2.2,2.4l-9.8,1.7c-1.1,0.2-2.6,0-2.9-1.5
		c-0.2-1,0.3-1.5,0.9-2l0.5-0.4c1-0.8,0.6-2.1,0.4-3.3L348.9,504.3z"/>
	<path class="st3" d="M392.4,492.5c-0.5-1.1-0.9-2.4-2.2-2.5l-0.7-0.1c-0.8-0.1-1.5-0.2-1.9-1.1c-0.7-1.4,0.4-2.4,1.4-2.9l8.9-4.4
		c1-0.5,2.5-0.8,3.2,0.6c0.5,0.9,0.1,1.5-0.3,2.2l-0.4,0.6c-0.7,1.1,0,2.2,0.6,3.3l12.1,24.5c1.5,3.1,2.2,2.7,4.9,1.6l1.7-0.8
		c2.8-1.4,4.6-2.4,5.4-5.9c0.3-1.3,0.6-3.4,1.8-4c0.8-0.4,2-0.1,2.5,0.9c0.7,1.4,1.1,3.7,1.3,5.2c0.5,2.5,0.2,2.9-1.9,3.9l-21,10.4
		c-1,0.5-2.5,0.8-3.2-0.6c-0.5-0.9-0.1-1.5,0.3-2.2l0.4-0.6c0.8-1.1,0-2.2-0.6-3.3L392.4,492.5z"/>
	<path class="st3" d="M420.3,477.6c-0.7-1-1.3-2.2-2.6-2.1l-0.7,0c-0.8,0-1.5,0-2.1-0.8c-0.9-1.3,0.1-2.4,1-3.1l8.2-5.6
		c0.9-0.6,2.3-1.1,3.2,0.2c0.6,0.9,0.3,1.5,0,2.2l-0.3,0.6c-0.6,1.2,0.3,2.2,1,3.2l15.5,23c0.7,1,1.2,2.2,2.6,2.1l0.7,0
		c0.8,0,1.5,0,2.1,0.8c0.9,1.3-0.1,2.4-1,3.1l-8.2,5.6c-0.9,0.6-2.4,1.1-3.2-0.2c-0.6-0.9-0.3-1.5,0-2.2l0.3-0.6
		c0.6-1.2-0.3-2.2-1-3.2L420.3,477.6z"/>
	<path class="st3" d="M456.2,448.1c-0.5-0.5-1.1-0.9-1.5-1.2c-1-0.5-1.7-0.1-2.6,0.2c-0.9,0.3-1.5,0.3-2.3-0.5
		c-1.4-1.4,0.5-2.9,1.4-3.7l3.3-3.1c0.9-0.8,2.5-2.6,3.8-1.1c0.8,0.8,0.7,1.4,0.3,2.3c-0.4,0.8-0.8,1.5-0.3,2.5
		c0.2,0.5,0.6,1.1,1.1,1.6l21.6,23c2.2,2.3,2.7,3.1,0.4,5.3c-0.8,0.8-1.4,1.3-2.6,1.2c-1.4-0.1-5.4-1.3-6.9-1.8l-29-7l16.7,17.7
		c0.5,0.5,1.1,0.9,1.5,1.2c1,0.5,1.7,0.1,2.6-0.2c0.9-0.3,1.5-0.3,2.3,0.5c1.4,1.4-0.5,2.9-1.4,3.7l-3.3,3.1
		c-0.9,0.8-2.5,2.6-3.8,1.1c-0.8-0.8-0.7-1.4-0.4-2.3c0.4-0.8,0.8-1.5,0.3-2.5c-0.2-0.5-0.6-1.1-1.1-1.6l-17.6-18.7
		c-1.7-1.8-3-3.6-5.4-2.5c-1,0.4-1.9,0.9-2.8-0.1c-1.3-1.4-0.2-2.5,0.8-3.5l5.2-4.9c1.4-1.3,1.6-1.6,3.6-1.3
		c4.8,0.5,11.7,2.4,16.6,3.6l12.7,3.2L456.2,448.1z"/>
	<path class="st3" d="M489.8,445.6c4.9,3.5,5.6,3.2,9.7-2.6c1.8-2.6,2.9-4.3,1.9-7.7c-0.4-1.3-1.1-3.3-0.3-4.4
		c0.5-0.8,1.8-1.1,2.7-0.4c1.3,0.9,2.7,2.8,3.6,4c1.6,2,1.5,2.4,0.2,4.4l-14.8,20.8c-0.7,0.9-1.8,1.9-3.1,0.9
		c-0.9-0.6-0.8-1.3-0.8-2.1l0-0.7c0.1-1.3-1.1-1.9-2.1-2.6l-22.6-16c-1-0.7-2-1.7-3.2-1.1l-0.6,0.3c-0.8,0.3-1.4,0.5-2.2-0.1
		c-1.3-0.9-0.8-2.3-0.1-3.2l14.1-19.9c0.5-0.7,1.2-1.9,2.2-1.9c1.2,0,4,1.8,5,2.5c1.1,0.8,1.7,1.9,1,3c-0.7,0.9-1.7,0.9-2.8,0.9
		c-1.6,0.1-2.7,0.4-3.8,1.3c-1.1,0.9-2.5,2.7-3.4,4c-0.6,0.9-1.9,2.8-2.1,3.8c-0.2,0.8,0,1.6,0.7,2.1l8.8,6.2l4.6-6.4
		c2.1-3,0.1-3.8,1.1-5.2c1.1-1.5,3.1,0,4.3,0.8c1.3,0.9,4.1,2.6,2.9,4.3c-1,1.4-2.4-0.1-4.5,2.8l-4.6,6.4L489.8,445.6z"/>
	<path class="st3" d="M153.2,190.5c-0.9-0.8-1.8-1.9-3.1-1.4l-0.7,0.2c-0.8,0.2-1.4,0.4-2.2-0.3c-1.2-1-0.6-2.4,0.2-3.3l6.6-7.6
		c0.8-0.9,2-1.7,3.2-0.6c0.8,0.7,0.7,1.4,0.6,2.2l-0.1,0.7c-0.3,1.3,0.9,2,1.8,2.8l20.8,18.2c2.6,2.3,3.1,1.7,5.2-0.4l1.3-1.5
		c2.1-2.4,3.3-4.1,2.7-7.6c-0.2-1.3-0.8-3.4,0.1-4.4c0.6-0.7,1.9-0.9,2.7-0.2c1.2,1,2.5,3.1,3.3,4.4c1.4,2.1,1.3,2.6-0.3,4.4
		L179.7,214c-0.8,0.9-2,1.7-3.2,0.6c-0.8-0.7-0.7-1.4-0.6-2.2l0.1-0.7c0.3-1.3-0.9-2-1.8-2.8L153.2,190.5z"/>
	<path class="st3" d="M364.5,108.3c1.3-2.2,1.6-2.8,3.9-2.5l9.7,1.6c1,0.2,1.7,1,1.4,2.4c-0.2,1.5-1.3,1.6-2.4,1.8
		c-1.5,0.2-1.7,1.1-2,2.6l-4.5,28c-0.2,1.2-0.6,2.5,0.4,3.3l0.5,0.4c0.6,0.6,1.1,1,0.9,2c-0.2,1.6-1.7,1.7-2.9,1.6l-9.9-1.6
		c-1.2-0.2-2.5-0.8-2.2-2.4c0.2-1,0.8-1.3,1.5-1.7l0.6-0.3c1.2-0.5,1.2-1.8,1.4-3l4-25.1l-12.2,21.9c-1.3,2.3-1.7,3.5-4.4,3
		c-2.3-0.4-2.9-0.7-3.5-3.1l-5.3-25.3l-3.9,24.6c-0.1,0.7-0.1,1.4,0,2c0.2,1.1,0.9,1.5,1.7,1.9c0.8,0.5,1.2,1,1,2.1
		c-0.3,2-2.6,1.4-3.8,1.2l-4.5-0.7c-1.2-0.2-3.6-0.4-3.3-2.4c0.2-1.1,0.7-1.4,1.6-1.7c0.9-0.2,1.7-0.3,2.2-1.3
		c0.2-0.5,0.5-1.2,0.6-1.9l4.5-27.8c0-0.2,0.1-0.8,0-1.2c0-1-0.5-1.9-1.7-2.5c-0.9-0.5-1.9-1-1.7-2.4c0.3-1.9,1.9-1.7,3.3-1.5
		l10.2,1.6c2.5,0.4,2.5,2.2,2.9,4.7l3.9,21.9L364.5,108.3z"/>
	<path class="st3" d="M388.6,119.4c0.4-1.2,1.1-2.4,0.2-3.4l-0.4-0.5c-0.5-0.7-0.9-1.2-0.6-2.2c0.5-1.5,2-1.4,3.1-1l9.4,3.4
		c1.1,0.4,2.3,1.3,1.8,2.7c-0.3,1-1,1.1-1.8,1.3l-0.7,0.1c-1.3,0.2-1.6,1.6-2,2.7l-9.4,26.4c-0.4,1.2-1.1,2.4-0.2,3.4l0.4,0.5
		c0.5,0.7,0.9,1.2,0.6,2.2c-0.5,1.5-2,1.4-3.1,1l-9.5-3.4c-1.1-0.4-2.3-1.3-1.8-2.7c0.3-1,1-1.1,1.8-1.4l0.7-0.1
		c1.3-0.2,1.6-1.6,2-2.7L388.6,119.4z"/>
	<path class="st3" d="M434.9,140.8c0.3-0.6,0.5-1.3,0.7-1.9c0.2-1.1-0.4-1.7-1-2.4c-0.6-0.8-0.8-1.4-0.2-2.3c1-1.7,2.9-0.4,4,0.2
		l4,2.2c1.1,0.6,3.2,1.6,2.3,3.3c-0.5,1-1.1,1.1-2.1,1.1c-0.9-0.1-1.7-0.3-2.5,0.5c-0.4,0.4-0.8,1-1.2,1.5l-15.4,27.9
		c-1.6,2.8-2.2,3.6-5,2c-1-0.6-1.7-0.9-1.9-2.1c-0.3-1.4-0.4-5.6-0.4-7.2l-2.2-30.1L402,154.9c-0.3,0.6-0.5,1.3-0.7,1.8
		c-0.2,1.1,0.4,1.7,1,2.4c0.6,0.8,0.8,1.4,0.2,2.3c-1,1.7-3,0.4-4-0.1l-4-2.2c-1.1-0.6-3.2-1.6-2.3-3.3c0.5-1,1.1-1.1,2.1-1
		c0.9,0.1,1.7,0.3,2.5-0.5c0.4-0.4,0.8-1,1.2-1.5l12.6-22.7c1.2-2.2,2.5-4,0.8-6c-0.7-0.8-1.5-1.5-0.8-2.8c0.9-1.7,2.4-1,3.6-0.3
		l6.3,3.5c1.7,0.9,2,1,2.4,3.1c1,4.8,1.3,12,1.7,17.1l0.9,13.2L434.9,140.8z"/>
	<path class="st3" d="M449.2,151c0.8-1,1.8-1.9,1.2-3.1l-0.2-0.6c-0.3-0.8-0.5-1.4,0.2-2.3c1-1.2,2.4-0.7,3.3,0l7.9,6.2
		c0.9,0.7,1.8,1.9,0.8,3.2c-0.7,0.8-1.3,0.8-2.2,0.7l-0.7-0.1c-1.3-0.2-2,1-2.7,1.9L439.4,179c-0.8,1-1.8,1.9-1.2,3.1l0.2,0.6
		c0.2,0.8,0.5,1.4-0.2,2.3c-1,1.2-2.4,0.7-3.3,0l-7.9-6.2c-0.9-0.7-1.8-1.9-0.8-3.2c0.7-0.8,1.3-0.7,2.2-0.7l0.7,0.1
		c1.3,0.2,2-1,2.7-2L449.2,151z"/>
	<path class="st3" d="M512.5,226c0.6-0.4,1.1-0.8,1.5-1.2c0.7-0.8,0.5-1.7,0.4-2.6c-0.1-1,0.1-1.5,1-2.1c1.7-1,2.8,1.2,3.4,2.2
		l2.3,4c0.6,1,1.9,3,0.2,4c-1,0.6-1.5,0.4-2.3-0.2c-0.7-0.6-1.3-1.1-2.4-0.9c-0.5,0.1-1.2,0.4-1.8,0.7l-27.6,15.8
		c-2.8,1.6-3.7,1.9-5.3-0.9c-0.6-1-0.9-1.7-0.5-2.8c0.4-1.4,2.6-4.9,3.4-6.4l13.7-26.9L477.1,221c-0.6,0.4-1.1,0.8-1.5,1.2
		c-0.7,0.8-0.5,1.7-0.4,2.6c0.1,1-0.1,1.5-1,2.1c-1.7,1-2.7-1.2-3.4-2.2l-2.3-4c-0.6-1-1.9-3-0.2-4c1-0.6,1.5-0.4,2.3,0.2
		c0.7,0.6,1.3,1.1,2.4,0.9c0.5-0.1,1.2-0.4,1.8-0.7l22.5-12.9c2.2-1.3,4.2-2.1,3.7-4.7c-0.2-1-0.4-2.1,0.8-2.8
		c1.7-1,2.5,0.4,3.2,1.6l3.6,6.3c1,1.7,1.2,1.9,0.5,3.9c-1.6,4.6-5.1,10.9-7.4,15.4l-6.1,11.7L512.5,226z"/>
	<path class="st3" d="M154.5,245.1c-5.7,1.4-11.6,0.3-17-2.7c-11.3-6.4-14.8-19-9.2-29c5.7-10.1,18.1-14,29.7-7.5
		c11.4,6.5,14.8,19.5,9.1,29.6C164.6,240,159.9,243.7,154.5,245.1 M153.2,215c-6.5-3.7-16.8-6.8-20.9,0.5c-1.9,3.4-0.9,7.3,1.5,10.6
		c2.2,3.1,5.3,5.3,8.7,7.2c6.3,3.6,17,7,21-0.3C167.6,225.7,159.8,218.7,153.2,215"/>
	<path class="st3" d="M186.3,147.5c4.4-3.3,8.8-5.9,14.9-5.4c6.3,0.4,11.5,3.8,15.5,9c3.5,4.6,5.7,10.3,5.3,15.8
		c-0.5,6-3.9,10.4-8.3,13.7l-13.6,10.3c-0.9,0.7-2.3,1.2-3.3,0c-0.6-0.8-0.4-1.5-0.1-2.3l0.2-0.6c0.5-1.2-0.4-2.2-1.2-3.1
		l-16.9-22.3c-0.7-1-1.4-2.2-2.7-2l-0.7,0.1c-0.8,0-1.5,0.1-2.1-0.7c-1-1.3-0.1-2.5,0.9-3.2L186.3,147.5z M201.9,177.1
		c2.5,3.3,3.5,4.5,6.7,2.1c7-5.3,5.7-14.2,0.2-21.4c-5.6-7.4-14.1-11.4-21.4-5.9c-3,2.3-2.2,3.3,0.1,6.3L201.9,177.1z"/>
	<path class="st3" d="M251.9,112.4c5.3-1.7,10.3-2.6,15.8-0.2c5.8,2.5,9.6,7.4,11.6,13.6c1.8,5.5,2,11.6-0.3,16.7
		c-2.5,5.5-7.1,8.5-12.4,10.2l-16.2,5.2c-1.1,0.4-2.6,0.4-3.1-1.1c-0.3-1,0.1-1.5,0.6-2.2l0.4-0.5c0.9-1,0.3-2.2-0.1-3.4l-8.5-26.7
		c-0.4-1.2-0.6-2.5-1.9-2.8l-0.7-0.2c-0.8-0.2-1.5-0.4-1.8-1.4c-0.5-1.5,0.8-2.3,1.9-2.7L251.9,112.4z M256.8,145.6
		c1.2,3.9,1.8,5.4,5.6,4.2c8.4-2.7,10.1-11.5,7.4-20.1c-2.8-8.8-9.5-15.5-18.2-12.7c-3.6,1.1-3.2,2.4-2,5.9L256.8,145.6z"/>
	<path class="st3" d="M292.1,140.4c-4.3-4-6.7-9.4-7.2-15.6c-1-13,7.5-22.9,19-23.8c11.6-0.9,21.7,7.2,22.8,20.5
		c1,13.1-8,23.1-19.5,24.1C302,146,296.3,144.1,292.1,140.4 M316.4,122.6c-0.6-7.4-3.7-17.8-12.1-17.1c-3.9,0.3-6.6,3.3-8,7.1
		c-1.3,3.6-1.5,7.4-1.2,11.2c0.6,7.3,3.7,17.9,11.9,17.3C315.5,140.5,317,130.1,316.4,122.6"/>
	<path class="st3" d="M445.7,186.3c0.4-5.8,3.2-11.1,7.8-15.3c9.5-8.8,22.6-8.3,30.4,0.2c7.9,8.5,7.8,21.5-2,30.6
		c-9.6,8.9-23.1,8.1-30.9-0.3C447.4,197.5,445.3,191.9,445.7,186.3 M474.8,194.3c5.5-5.1,11.6-13.9,5.9-20.1
		c-2.7-2.9-6.6-3.1-10.6-1.8c-3.6,1.2-6.7,3.4-9.5,6c-5.3,4.9-11.8,14-6.2,20.1C460.2,204.7,469.2,199.5,474.8,194.3"/>
	<path class="st3" d="M169.5,469.8c-0.8,0.9-1.9,1.7-1.5,3l0.2,0.6c0.2,0.8,0.3,1.5-0.4,2.2c-1.1,1.1-2.4,0.4-3.2-0.4l-7.2-7
		c-0.8-0.8-1.5-2.1-0.5-3.2c0.7-0.7,1.4-0.6,2.2-0.5l0.7,0.2c1.3,0.3,2-0.8,2.9-1.6l19.3-19.9c0.8-0.9,1.9-1.7,1.5-2.9l-0.2-0.7
		c-0.2-0.8-0.3-1.5,0.4-2.2c1.1-1.1,2.4-0.4,3.2,0.4l13.4,12.9c2,2,4.3,4.3,5.1,7.2c1,3.2,0.1,6.9-2.5,9.5
		c-3.8,3.9-9.1,3.9-13.6,2.5c-0.4,5.3-2.4,10.3-4.7,15.2c-0.7,1.7-1.1,2.6-0.7,4.3c0.2,0.8,0.4,1.4-0.3,2.1c-1.1,1.1-2.4,0-3.1-0.7
		l-7.3-7.1c-0.9-0.9-2.3-2.1-0.9-3.6c1.2-1.2,2.7,0.4,3.8-0.7c2.1-2.1,4.5-10.9,4.8-14.2l-4.4-2.9L169.5,469.8z M179.8,459.2
		c3.6,3.3,10.3,6.9,15.1,2c3.5-3.6,2.5-7.5-0.5-10.4c-0.8-0.8-2.4-2-3.6-1.9c-1.2,0.1-2.4,1.3-3.2,2.2L179.8,459.2z"/>
</g>
</svg>
